<?xml version="1.0" encoding="UTF-8" standalone="no"?>
<!-- Created with Inkscape (http://www.inkscape.org/) -->

<svg
   xmlns:dc="http://purl.org/dc/elements/1.1/"
   xmlns:cc="http://creativecommons.org/ns#"
   xmlns:rdf="http://www.w3.org/1999/02/22-rdf-syntax-ns#"
   xmlns:svg="http://www.w3.org/2000/svg"
   xmlns="http://www.w3.org/2000/svg"
   xmlns:sodipodi="http://sodipodi.sourceforge.net/DTD/sodipodi-0.dtd"
   xmlns:inkscape="http://www.inkscape.org/namespaces/inkscape"
   width="200"
   height="199.98558"
   viewBox="0 0 200 199.98559"
   id="svg2"
   version="1.1"
   inkscape:version="0.91 r13725"
   sodipodi:docname="download.svg">
  <defs
     id="defs4" />
  <sodipodi:namedview
     id="base"
     pagecolor="#ffffff"
     bordercolor="#666666"
     borderopacity="1.0"
     inkscape:pageopacity="0.0"
     inkscape:pageshadow="2"
     inkscape:zoom="1.4"
     inkscape:cx="156.70147"
     inkscape:cy="201.30021"
     inkscape:document-units="px"
     inkscape:current-layer="layer1"
     showgrid="false"
     inkscape:window-width="1920"
     inkscape:window-height="1018"
     inkscape:window-x="1912"
     inkscape:window-y="-8"
     inkscape:window-maximized="1"
     units="px"
     fit-margin-top="0"
     fit-margin-left="0"
     fit-margin-right="0"
     fit-margin-bottom="0" />
  <metadata
     id="metadata7">
    <rdf:RDF>
      <cc:Work
         rdf:about="">
        <dc:format>image/svg+xml</dc:format>
        <dc:type
           rdf:resource="http://purl.org/dc/dcmitype/StillImage" />
        <dc:title></dc:title>
      </cc:Work>
    </rdf:RDF>
  </metadata>
  <g
     inkscape:label="Layer 1"
     inkscape:groupmode="layer"
     id="layer1"
     transform="translate(-19.397591,-278.88089)">
    <path
       style="fill:#fa7b01;fill-opacity:1"
       d="m 111.06887,478.56139 c -38.254394,-2.91186 -72.210205,-28.72153 -85.698657,-65.13916 -4.30643,-11.62697 -5.972622,-21.3528 -5.972622,-34.86316 0,-9.79763 0.269681,-12.89319 1.728408,-19.83981 8.247246,-39.27443 37.130848,-68.8798 76.371815,-78.28026 5.631276,-1.34902 8.248066,-1.53619 21.765616,-1.55685 16.14199,-0.0246 18.5111,0.27664 30.38813,3.86468 6.90345,2.08553 18.94436,7.90327 25.99591,12.5603 8.55666,5.65105 21.3113,18.48288 27.14226,27.30654 7.48592,11.328 12.23674,22.69526 15.24779,36.48334 1.94997,8.92924 1.76927,31.36939 -0.32444,40.28989 -3.21456,13.69596 -7.7795,24.36553 -15.21147,35.55346 -5.5122,8.29797 -17.89789,20.72285 -26.40977,26.49335 -19.06381,12.92399 -41.74834,18.89932 -65.02297,17.12768 z m -10.16092,-20.27614 c 0.40224,-1.03285 2.52885,-7.05769 4.7258,-13.38852 l 3.99444,-11.51061 -0.66744,-9.96521 c -0.3671,-5.48087 -0.73499,-10.03276 -0.81755,-10.11532 -0.0825,-0.0825 -0.99452,-0.36203 -2.02661,-0.62106 -1.64704,-0.41338 -1.8785,-0.27404 -1.89268,1.13953 -0.009,0.88578 -0.2929,5.18264 -0.63111,9.54856 -0.54777,7.07119 -0.87851,8.46146 -3.02854,12.73085 -1.327475,2.63603 -2.788155,6.28536 -3.245932,8.10961 -0.530343,2.11345 -2.054183,4.84358 -4.200143,7.52502 -1.852303,2.3145 -3.411063,4.46558 -3.463914,4.78015 -0.0904,0.53803 7.765228,3.45611 9.651828,3.58531 0.478777,0.0327 1.199601,-0.78545 1.601851,-1.81831 z m 67.94577,-11.91155 c 3.36821,-2.41886 3.36841,-2.37415 -0.0356,-7.69547 -2.22813,-3.48314 -2.66478,-5.18265 -6.50945,-25.3356 -2.26663,-11.8811 -4.12114,-21.83818 -4.12114,-22.12684 0,-0.70512 -5.22426,-4.13186 -5.65009,-3.70605 -0.18462,0.18463 0.404,3.77758 1.30805,7.98434 0.90405,4.20676 2.0961,11.3362 2.649,15.84321 1.77201,14.4448 3.81057,25.71382 5.54943,30.67691 0.93128,2.65805 1.81775,5.21695 1.96995,5.68641 0.4331,1.33604 1.56316,1.0262 4.83983,-1.32691 z M 93.133756,433.18943 c 1.919766,-4.81215 2.854315,-8.34128 3.164595,-11.95039 0.242171,-2.81688 0.890228,-10.49927 1.440131,-17.07199 0.9846,-11.76844 2.051252,-22.88449 4.323698,-45.05904 l 1.15358,-11.25649 2.73152,-0.48381 c 4.76832,-0.84459 13.65496,-0.59979 19.55734,0.53871 6.81622,1.31479 13.61355,1.49877 25.32145,0.68537 l 8.68618,-0.60347 5.825,4.94535 c 3.20376,2.71994 5.84399,4.98893 5.86719,5.04218 0.0231,0.0533 1.51959,11.72736 3.32529,25.94243 l 3.28312,25.84559 5.72287,5.75936 c 3.95365,3.97888 6.14507,5.69985 7.0886,5.56687 2.89213,-0.40763 8.92307,-14.83853 11.25815,-26.93862 5.09488,-26.40108 -3.04213,-53.88733 -21.74943,-73.46804 -24.88955,-26.0516 -62.93743,-33.29852 -96.037906,-18.2922 -17.273778,7.83118 -33.5036,24.41774 -41.398454,42.30839 -5.605403,12.70249 -8.208421,28.37022 -6.827976,41.09799 2.246378,20.71166 10.383368,38.05794 24.393344,52.00125 3.302079,3.28636 6.224125,5.97519 6.49344,5.97519 0.269314,0 2.283491,-1.5009 4.475937,-3.33533 3.810274,-3.18806 4.070354,-3.61288 5.89056,-9.62178 1.153777,-3.80884 2.167537,-9.28998 2.572251,-13.90737 0.367377,-4.19151 1.112189,-12.38402 1.655115,-18.20557 0.542931,-5.82153 1.630411,-17.95972 2.416628,-26.97373 0.786195,-9.01401 1.578046,-17.64981 1.759652,-19.19067 l 0.330188,-2.80157 5.254835,-0.73738 c 2.89016,-0.40555 5.351148,-0.64106 5.468862,-0.52335 0.234183,0.2342 -0.543925,10.345 -2.577805,33.49616 -0.725915,8.26284 -1.81476,20.70832 -2.419657,27.65662 -0.891355,10.23883 -1.543309,14.13058 -3.439766,20.53318 -1.286977,4.34496 -2.33996,9.41021 -2.33996,11.25614 l 0,3.35621 2.303577,-2.3787 c 1.457577,-1.50511 3.304069,-4.88659 5.027851,-9.20749 z m 79.393034,-25.09582 c -5.7e-4,-1.22065 -1.21016,-11.86746 -2.68774,-23.6596 l -2.6865,-21.44024 -2.91748,-2.9727 c -3.0115,-3.0685 -3.6824,-3.36856 -5.27539,-2.35942 -0.78568,0.49771 -0.76333,1.12337 0.13995,3.9161 1.07482,3.32308 1.98801,7.37106 7.29696,32.34611 1.55684,7.32389 3.10577,14.00757 3.44206,14.85263 0.95209,2.39244 2.6896,1.95106 2.68814,-0.68288 z"
       id="path3360"
       inkscape:connector-curvature="0"
       inkscape:transform-center-x="-15.608673"
       inkscape:transform-center-y="-17.169542" />
  </g>
</svg>
